<?xml version="1.0" encoding="UTF-8"?>
<!DOCTYPE svg PUBLIC "-//W3C//DTD SVG 1.1//EN" "http://www.w3.org/Graphics/SVG/1.1/DTD/svg11.dtd">
<svg xmlns="http://www.w3.org/2000/svg" version="1.1" width="1386px" height="538px" style="shape-rendering:geometricPrecision; text-rendering:geometricPrecision; image-rendering:optimizeQuality; fill-rule:evenodd; clip-rule:evenodd" xmlns:xlink="http://www.w3.org/1999/xlink">
<g><path style="opacity:1" fill="#fefefe" d="M -0.5,-0.5 C 461.5,-0.5 923.5,-0.5 1385.5,-0.5C 1385.5,178.833 1385.5,358.167 1385.5,537.5C 923.5,537.5 461.5,537.5 -0.5,537.5C -0.5,358.167 -0.5,178.833 -0.5,-0.5 Z"/></g>
<g><path style="opacity:1" fill="#23466e" d="M 213.5,183.5 C 256.414,199.588 299.414,216.422 342.5,234C 344.223,234.523 345.556,235.523 346.5,237C 335.21,268.532 323.71,300.032 312,331.5C 279.391,281.929 246.558,232.596 213.5,183.5 Z"/></g>
<g><path style="opacity:1" fill="#2192be" d="M 446.5,219.5 C 447.043,219.56 447.376,219.893 447.5,220.5C 439.222,261.058 431.389,301.724 424,342.5C 410.626,320.25 397.126,298.083 383.5,276C 404.397,256.931 425.397,238.097 446.5,219.5 Z"/></g>
<g><path style="opacity:1" fill="#8fc7de" d="M 1008.5,221.5 C 1015.31,220.509 1022.31,220.175 1029.5,220.5C 1029.74,221.791 1029.4,222.791 1028.5,223.5C 1022.25,221.541 1015.58,220.874 1008.5,221.5 Z"/></g>
<g><path style="opacity:1" fill="#2092be" d="M 1008.5,221.5 C 1015.58,220.874 1022.25,221.541 1028.5,223.5C 1026.34,230.456 1024.34,237.456 1022.5,244.5C 1021.6,245.209 1021.26,246.209 1021.5,247.5C 1045.17,247.5 1068.83,247.5 1092.5,247.5C 1092.5,253.5 1092.5,259.5 1092.5,265.5C 1066.66,265.169 1040.99,265.502 1015.5,266.5C 1013.86,270.4 1012.19,274.4 1010.5,278.5C 1035.16,279.5 1059.82,279.833 1084.5,279.5C 1081.34,298.818 1072.68,315.151 1058.5,328.5C 1068.92,334.084 1079.92,338.084 1091.5,340.5C 1091.5,346.5 1091.5,352.5 1091.5,358.5C 1090.5,358.5 1089.5,358.5 1088.5,358.5C 1072.28,355.204 1056.94,349.538 1042.5,341.5C 1027.76,349.705 1012.09,355.372 995.5,358.5C 993.547,352.926 992.88,346.926 993.5,340.5C 1005.06,338.092 1016.06,334.092 1026.5,328.5C 1017.09,319.352 1009.92,308.686 1005,296.5C 996.996,316.67 988.496,336.67 979.5,356.5C 971.855,357.665 964.188,357.831 956.5,357C 971.185,328.132 983.518,298.299 993.5,267.5C 994.043,267.44 994.376,267.107 994.5,266.5C 983.854,265.501 973.187,265.168 962.5,265.5C 966.022,252.097 969.856,238.764 974,225.5C 980.41,224.522 986.91,224.189 993.5,224.5C 991.5,232.167 989.5,239.833 987.5,247.5C 991.884,247.826 996.217,247.492 1000.5,246.5C 1003.2,238.059 1005.87,229.725 1008.5,221.5 Z"/></g>
<g><path style="opacity:1" fill="#1e91be" d="M 887.5,266.5 C 897.5,266.5 907.5,266.5 917.5,266.5C 917.5,254.167 917.5,241.833 917.5,229.5C 923.833,229.5 930.167,229.5 936.5,229.5C 936.5,248.167 936.5,266.833 936.5,285.5C 920.167,285.5 903.833,285.5 887.5,285.5C 887.5,302.5 887.5,319.5 887.5,336.5C 899.167,336.5 910.833,336.5 922.5,336.5C 922.5,323.167 922.5,309.833 922.5,296.5C 928.833,296.5 935.167,296.5 941.5,296.5C 941.5,316.167 941.5,335.833 941.5,355.5C 898.833,355.5 856.167,355.5 813.5,355.5C 813.5,335.833 813.5,316.167 813.5,296.5C 820.167,296.5 826.833,296.5 833.5,296.5C 833.5,309.833 833.5,323.167 833.5,336.5C 844.833,336.5 856.167,336.5 867.5,336.5C 868.497,319.675 868.83,302.675 868.5,285.5C 851.833,285.5 835.167,285.5 818.5,285.5C 818.5,266.833 818.5,248.167 818.5,229.5C 824.833,229.5 831.167,229.5 837.5,229.5C 837.5,241.833 837.5,254.167 837.5,266.5C 847.5,266.5 857.5,266.5 867.5,266.5C 868.496,252.01 868.829,237.343 868.5,222.5C 874.5,222.5 880.5,222.5 886.5,222.5C 886.171,237.343 886.504,252.01 887.5,266.5 Z"/></g>
<g><path style="opacity:1" fill="#62b2d1" d="M 887.5,266.5 C 886.504,252.01 886.171,237.343 886.5,222.5C 880.5,222.5 874.5,222.5 868.5,222.5C 868.829,237.343 868.496,252.01 867.5,266.5C 867.5,251.5 867.5,236.5 867.5,221.5C 874.167,221.5 880.833,221.5 887.5,221.5C 887.5,236.5 887.5,251.5 887.5,266.5 Z"/></g>
<g><path style="opacity:1" fill="#284a71" d="M 450.5,220.5 C 461.034,234.836 470.867,249.502 480,264.5C 469,258.833 458,253.167 447,247.5C 447.725,238.477 448.891,229.477 450.5,220.5 Z"/></g>
<g><path style="opacity:1" fill="#2593bf" d="M 573.5,223.5 C 580.167,223.5 586.833,223.5 593.5,223.5C 593.5,268.5 593.5,313.5 593.5,358.5C 579.833,358.5 566.167,358.5 552.5,358.5C 552.5,351.833 552.5,345.167 552.5,338.5C 559.5,338.5 566.5,338.5 573.5,338.5C 573.5,300.167 573.5,261.833 573.5,223.5 Z"/></g>
<g><path style="opacity:1" fill="#2593bf" d="M 1049.5,224.5 C 1055.98,223.509 1062.65,223.176 1069.5,223.5C 1071.01,230.541 1072.68,237.541 1074.5,244.5C 1068.13,244.83 1061.8,244.496 1055.5,243.5C 1053.63,237.007 1051.63,230.673 1049.5,224.5 Z"/></g>
<g><path style="opacity:1" fill="#2393bf" d="M 662.5,224.5 C 677.833,224.5 693.167,224.5 708.5,224.5C 708.5,242.167 708.5,259.833 708.5,277.5C 700.167,277.5 691.833,277.5 683.5,277.5C 683.625,283.203 683.292,288.87 682.5,294.5C 691.5,294.5 700.5,294.5 709.5,294.5C 708.325,315.488 707.325,336.488 706.5,357.5C 694.167,357.5 681.833,357.5 669.5,357.5C 669.5,351.167 669.5,344.833 669.5,338.5C 675.5,338.5 681.5,338.5 687.5,338.5C 687.876,329.926 688.543,321.426 689.5,313C 680.506,312.5 671.506,312.334 662.5,312.5C 663.537,294.836 664.537,277.17 665.5,259.5C 673.5,259.5 681.5,259.5 689.5,259.5C 689.5,254.167 689.5,248.833 689.5,243.5C 680.5,243.5 671.5,243.5 662.5,243.5C 662.5,237.167 662.5,230.833 662.5,224.5 Z"/></g>
<g><path style="opacity:1" fill="#2192be" d="M 764.5,275.5 C 773.652,276.494 782.985,276.827 792.5,276.5C 792.5,292.5 792.5,308.5 792.5,324.5C 783.167,324.5 773.833,324.5 764.5,324.5C 764.5,329.167 764.5,333.833 764.5,338.5C 768.555,338.824 772.555,338.491 776.5,337.5C 775.618,334.209 774.952,330.876 774.5,327.5C 780.758,327.19 786.924,327.524 793,328.5C 795.285,337.424 797.118,346.424 798.5,355.5C 769.833,355.5 741.167,355.5 712.5,355.5C 712.5,349.833 712.5,344.167 712.5,338.5C 723.167,338.5 733.833,338.5 744.5,338.5C 744.5,333.833 744.5,329.167 744.5,324.5C 734.833,324.5 725.167,324.5 715.5,324.5C 715.5,308.5 715.5,292.5 715.5,276.5C 725.167,276.5 734.833,276.5 744.5,276.5C 744.5,273.5 744.5,270.5 744.5,267.5C 735.833,267.5 727.167,267.5 718.5,267.5C 718.5,253.5 718.5,239.5 718.5,225.5C 742.167,225.5 765.833,225.5 789.5,225.5C 789.5,239.5 789.5,253.5 789.5,267.5C 781.167,267.5 772.833,267.5 764.5,267.5C 764.5,270.167 764.5,272.833 764.5,275.5 Z"/></g>
<g><path style="opacity:1" fill="#2393bf" d="M 184.5,236.5 C 185.622,235.844 186.955,235.511 188.5,235.5C 204.165,236.7 219.832,237.867 235.5,239C 256.603,266.06 276.77,293.56 296,321.5C 258.957,292.951 221.79,264.617 184.5,236.5 Z"/></g>
<g><path style="opacity:1" fill="#67cbe8" d="M 163.5,237.5 C 164.5,237.5 165.5,237.5 166.5,237.5C 167.002,242.838 167.169,248.172 167,253.5C 161.167,249.667 155.333,245.833 149.5,242C 154.139,240.179 158.805,238.679 163.5,237.5 Z"/></g>
<g><path style="opacity:1" fill="#23476e" d="M 351.5,240.5 C 374.973,274.758 397.973,309.425 420.5,344.5C 420.291,345.086 419.957,345.586 419.5,346C 378.49,362.113 337.656,378.613 297,395.5C 314.25,343.588 332.417,291.921 351.5,240.5 Z"/></g>
<g><path style="opacity:1" fill="#264970" d="M 175.5,242.5 C 185.751,250.073 195.751,258.073 205.5,266.5C 195.869,267.706 186.203,268.373 176.5,268.5C 176.167,259.833 175.833,251.167 175.5,242.5 Z"/></g>
<g><path style="opacity:1" fill="#fefffe" d="M 738.5,242.5 C 749.167,242.5 759.833,242.5 770.5,242.5C 770.5,245.5 770.5,248.5 770.5,251.5C 759.833,251.5 749.167,251.5 738.5,251.5C 738.5,248.5 738.5,245.5 738.5,242.5 Z"/></g>
<g><path style="opacity:1" fill="#2393bf" d="M 533.5,244.5 C 540.167,244.5 546.833,244.5 553.5,244.5C 549.719,275.499 543.053,305.832 533.5,335.5C 526.167,335.5 518.833,335.5 511.5,335.5C 521.822,305.881 529.155,275.547 533.5,244.5 Z"/></g>
<g><path style="opacity:1" fill="#94cadf" d="M 631.5,246.5 C 624.646,246.176 617.979,246.509 611.5,247.5C 610.957,247.44 610.624,247.107 610.5,246.5C 617.656,245.181 624.656,245.181 631.5,246.5 Z"/></g>
<g><path style="opacity:1" fill="#2493bf" d="M 631.5,246.5 C 639.479,276.062 645.146,306.062 648.5,336.5C 642.167,336.5 635.833,336.5 629.5,336.5C 625.801,306.336 619.801,276.67 611.5,247.5C 617.979,246.509 624.646,246.176 631.5,246.5 Z"/></g>
<g><path style="opacity:1" fill="#c3e3ee" d="M 962.5,265.5 C 973.187,265.168 983.854,265.501 994.5,266.5C 994.376,267.107 994.043,267.44 993.5,267.5C 983.167,266.833 972.833,266.167 962.5,265.5 Z"/></g>
<g><path style="opacity:1" fill="#c1e2ed" d="M 1022.5,244.5 C 1045.81,246.49 1069.48,247.157 1093.5,246.5C 1093.5,253.167 1093.5,259.833 1093.5,266.5C 1067.5,266.5 1041.5,266.5 1015.5,266.5C 1040.99,265.502 1066.66,265.169 1092.5,265.5C 1092.5,259.5 1092.5,253.5 1092.5,247.5C 1068.83,247.5 1045.17,247.5 1021.5,247.5C 1021.26,246.209 1021.6,245.209 1022.5,244.5 Z"/></g>
<g><path style="opacity:1" fill="#58acce" d="M 764.5,275.5 C 774.167,275.5 783.833,275.5 793.5,275.5C 793.83,292.009 793.496,308.342 792.5,324.5C 792.5,308.5 792.5,292.5 792.5,276.5C 782.985,276.827 773.652,276.494 764.5,275.5 Z"/></g>
<g><path style="opacity:1" fill="#399ac4" d="M 173.5,278.5 C 176.572,278.183 179.572,278.516 182.5,279.5C 180.549,282.786 178.215,285.786 175.5,288.5C 174.192,285.294 173.525,281.96 173.5,278.5 Z"/></g>
<g><path style="opacity:1" fill="#469fc6" d="M 202.5,281.5 C 205.815,282.329 209.148,283.162 212.5,284C 209.671,285.247 207.005,286.747 204.5,288.5C 202.829,286.49 202.162,284.157 202.5,281.5 Z"/></g>
<g><path style="opacity:1" fill="#3799c3" d="M 153.5,283.5 C 157.83,285.946 161.164,289.446 163.5,294C 158.78,293.815 154.447,292.315 150.5,289.5C 151.513,287.473 152.513,285.473 153.5,283.5 Z"/></g>
<g><path style="opacity:1" fill="#61c9e8" d="M 184.5,292.5 C 190.082,295.411 195.415,298.744 200.5,302.5C 195.011,304.622 189.344,305.956 183.5,306.5C 183.669,301.819 184.002,297.152 184.5,292.5 Z"/></g>
<g><path style="opacity:1" fill="#264970" d="M 270.5,314.5 C 268.052,315.473 265.385,315.806 262.5,315.5C 248.125,315.685 233.792,315.018 219.5,313.5C 223.501,306.16 228.001,299.16 233,292.5C 245.127,300.459 257.627,307.792 270.5,314.5 Z"/></g>
<g><path style="opacity:1" fill="#a0d0e3" d="M 775.5,293.5 C 771.5,293.5 767.5,293.5 763.5,293.5C 763.5,298.167 763.5,302.833 763.5,307.5C 762.513,302.695 762.179,297.695 762.5,292.5C 767.032,292.182 771.366,292.515 775.5,293.5 Z"/></g>
<g><path style="opacity:1" fill="#fefffe" d="M 775.5,293.5 C 775.5,298.167 775.5,302.833 775.5,307.5C 771.5,307.5 767.5,307.5 763.5,307.5C 763.5,302.833 763.5,298.167 763.5,293.5C 767.5,293.5 771.5,293.5 775.5,293.5 Z"/></g>
<g><path style="opacity:1" fill="#86c3db" d="M 745.5,307.5 C 745.5,302.833 745.5,298.167 745.5,293.5C 741.5,293.5 737.5,293.5 733.5,293.5C 733.5,298.167 733.5,302.833 733.5,307.5C 732.513,302.695 732.179,297.695 732.5,292.5C 737.167,292.5 741.833,292.5 746.5,292.5C 746.821,297.695 746.487,302.695 745.5,307.5 Z"/></g>
<g><path style="opacity:1" fill="#fefffe" d="M 745.5,307.5 C 741.5,307.5 737.5,307.5 733.5,307.5C 733.5,302.833 733.5,298.167 733.5,293.5C 737.5,293.5 741.5,293.5 745.5,293.5C 745.5,298.167 745.5,302.833 745.5,307.5 Z"/></g>
<g><path style="opacity:1" fill="#fdfefe" d="M 1026.5,297.5 C 1037.19,297.168 1047.85,297.501 1058.5,298.5C 1054.64,306.03 1049.31,312.363 1042.5,317.5C 1035.28,312.287 1029.95,305.62 1026.5,297.5 Z"/></g>
<g><path style="opacity:1" fill="#284a71" d="M 159.5,303.5 C 160.654,309.987 160.821,316.654 160,323.5C 157.308,320.308 154.808,316.975 152.5,313.5C 154.859,310.149 157.192,306.815 159.5,303.5 Z"/></g>
<g><path style="opacity:1" fill="#8296ad" d="M 270.5,314.5 C 271.289,314.783 271.956,315.283 272.5,316C 268.973,316.808 265.64,316.641 262.5,315.5C 265.385,315.806 268.052,315.473 270.5,314.5 Z"/></g>
<g><path style="opacity:1" fill="#389ac3" d="M 175.5,322.5 C 176.496,322.414 177.329,322.748 178,323.5C 179.868,326.605 181.035,329.938 181.5,333.5C 178.523,332.929 175.69,331.929 173,330.5C 173.491,327.819 174.324,325.153 175.5,322.5 Z"/></g>
<g><path style="opacity:1" fill="#2c96c1" d="M 205.5,326.5 C 211.118,331.802 216.118,337.802 220.5,344.5C 210.183,345.666 199.849,345.832 189.5,345C 195.065,338.942 200.399,332.775 205.5,326.5 Z"/></g>
<g><path style="opacity:1" fill="#9fd0e3" d="M 818.5,285.5 C 835.167,285.5 851.833,285.5 868.5,285.5C 868.83,302.675 868.497,319.675 867.5,336.5C 867.5,319.833 867.5,303.167 867.5,286.5C 850.991,286.83 834.658,286.496 818.5,285.5 Z"/></g>
<g><path style="opacity:1" fill="#78bdd7" d="M 1091.5,340.5 C 1092.49,346.645 1092.82,352.978 1092.5,359.5C 1090.9,359.768 1089.57,359.434 1088.5,358.5C 1089.5,358.5 1090.5,358.5 1091.5,358.5C 1091.5,352.5 1091.5,346.5 1091.5,340.5 Z"/></g>
<g><path style="opacity:1" fill="#76bcd7" d="M 993.5,340.5 C 992.88,346.926 993.547,352.926 995.5,358.5C 994.791,359.404 993.791,359.737 992.5,359.5C 992.177,352.978 992.51,346.645 993.5,340.5 Z"/></g>
<g><path style="opacity:1" fill="#25486f" d="M 171.5,448.5 C 171.167,448.5 170.833,448.5 170.5,448.5C 214.669,416.487 259.169,384.82 304,353.5C 299.553,368.673 294.386,383.673 288.5,398.5C 249.594,415.455 210.594,432.121 171.5,448.5 Z"/></g>
<g><path style="opacity:1" fill="#54accf" d="M 712.5,338.5 C 712.5,344.167 712.5,349.833 712.5,355.5C 741.167,355.5 769.833,355.5 798.5,355.5C 769.671,356.498 740.671,356.831 711.5,356.5C 711.177,350.31 711.51,344.31 712.5,338.5 Z"/></g>
<g><path style="opacity:1" fill="#62c9e8" d="M 292.5,352.5 C 294.379,352.393 294.712,352.893 293.5,354C 266.034,370.635 238.701,387.468 211.5,404.5C 206.5,402 201.5,399.5 196.5,397C 228.525,382.055 260.525,367.222 292.5,352.5 Z"/></g>
<g><path style="opacity:1" fill="#2f4f75" d="M 902.5,398.5 C 903.103,403.619 902.436,408.285 900.5,412.5C 900.189,411.522 899.522,410.855 898.5,410.5C 893.326,414.31 887.993,414.477 882.5,411C 877.848,404.159 877.348,396.993 881,389.5C 887.006,384.536 893.339,384.202 900,388.5C 901.009,390.025 901.509,391.692 901.5,393.5C 899.095,392.313 896.761,390.813 894.5,389C 889.375,387.431 885.541,388.931 883,393.5C 882.333,397.5 882.333,401.5 883,405.5C 886.366,410.609 890.866,411.776 896.5,409C 898.377,406.874 899.377,404.374 899.5,401.5C 896.833,401.5 894.167,401.5 891.5,401.5C 891.5,400.5 891.5,399.5 891.5,398.5C 895.167,398.5 898.833,398.5 902.5,398.5 Z"/></g>
<g><path style="opacity:1" fill="#335277" d="M 917.5,385.5 C 933.206,384.238 939.039,391.238 935,406.5C 929.932,413.868 923.432,415.368 915.5,411C 911.12,405.981 909.62,400.148 911,393.5C 912.479,390.172 914.645,387.506 917.5,385.5 Z"/></g>
<g><path style="opacity:1" fill="#264970" d="M 688.5,385.5 C 688.5,394.5 688.5,403.5 688.5,412.5C 687.5,412.5 686.5,412.5 685.5,412.5C 685.5,408.5 685.5,404.5 685.5,400.5C 680.833,400.5 676.167,400.5 671.5,400.5C 670.517,404.298 670.183,408.298 670.5,412.5C 669.5,412.5 668.5,412.5 667.5,412.5C 667.5,403.833 667.5,395.167 667.5,386.5C 668.5,386.5 669.5,386.5 670.5,386.5C 670.5,390.167 670.5,393.833 670.5,397.5C 675.695,397.821 680.695,397.487 685.5,396.5C 685.5,392.833 685.5,389.167 685.5,385.5C 686.5,385.5 687.5,385.5 688.5,385.5 Z"/></g>
<g><path style="opacity:1" fill="#798fa7" d="M 667.5,386.5 C 668.568,385.566 669.901,385.232 671.5,385.5C 671.5,389.167 671.5,392.833 671.5,396.5C 676.167,396.5 680.833,396.5 685.5,396.5C 680.695,397.487 675.695,397.821 670.5,397.5C 670.5,393.833 670.5,390.167 670.5,386.5C 669.5,386.5 668.5,386.5 667.5,386.5 Z"/></g>
<g><path style="opacity:1" fill="#274970" d="M 717.5,385.5 C 717.5,386.5 717.5,387.5 717.5,388.5C 712.167,388.5 706.833,388.5 701.5,388.5C 701.5,391.5 701.5,394.5 701.5,397.5C 706.5,397.5 711.5,397.5 716.5,397.5C 716.5,398.5 716.5,399.5 716.5,400.5C 711.833,400.5 707.167,400.5 702.5,400.5C 701.521,403.625 701.187,406.958 701.5,410.5C 706.875,410.172 712.208,410.505 717.5,411.5C 711.202,412.496 704.868,412.83 698.5,412.5C 698.5,403.5 698.5,394.5 698.5,385.5C 704.833,385.5 711.167,385.5 717.5,385.5 Z"/></g>
<g><path style="opacity:1" fill="#2d4e74" d="M 730.5,401.5 C 729.518,404.962 729.185,408.629 729.5,412.5C 728.5,412.5 727.5,412.5 726.5,412.5C 726.5,403.5 726.5,394.5 726.5,385.5C 731.179,385.334 735.845,385.501 740.5,386C 745.201,386.034 747.534,388.367 747.5,393C 747.518,395.379 746.851,397.546 745.5,399.5C 747.055,403.493 748.055,407.66 748.5,412C 747.207,412.49 745.873,412.657 744.5,412.5C 744.929,408.743 744.263,405.243 742.5,402C 738.514,401.501 734.514,401.334 730.5,401.5 Z"/></g>
<g><path style="opacity:1" fill="#22466e" d="M 776.5,386.5 C 771.604,388.446 766.271,389.113 760.5,388.5C 760.5,391.5 760.5,394.5 760.5,397.5C 765.5,397.5 770.5,397.5 775.5,397.5C 775.5,398.5 775.5,399.5 775.5,400.5C 770.5,400.5 765.5,400.5 760.5,400.5C 760.5,403.5 760.5,406.5 760.5,409.5C 765.681,410.167 771.015,410.833 776.5,411.5C 770.202,412.496 763.868,412.83 757.5,412.5C 757.5,403.833 757.5,395.167 757.5,386.5C 763.833,386.5 770.167,386.5 776.5,386.5 Z"/></g>
<g><path style="opacity:1" fill="#365479" d="M 796.5,385.5 C 797.833,385.5 799.167,385.5 800.5,385.5C 801.676,392.886 803.176,400.22 805,407.5C 807.095,400.282 809.261,393.115 811.5,386C 812.944,385.219 814.277,385.386 815.5,386.5C 817.354,392.926 819.354,399.259 821.5,405.5C 823.317,399.614 824.817,393.614 826,387.5C 827.049,385.893 828.549,385.227 830.5,385.5C 827.857,394.738 825.524,404.071 823.5,413.5C 822.167,413.5 820.833,413.5 819.5,413.5C 818.083,406.002 816.083,398.668 813.5,391.5C 810.938,397.968 808.938,404.635 807.5,411.5C 805.994,412.747 804.494,412.747 803,411.5C 800.524,402.891 798.358,394.224 796.5,385.5 Z"/></g>
<g><path style="opacity:1" fill="#355479" d="M 841.5,396.5 C 845.97,397.486 850.637,397.819 855.5,397.5C 855.5,398.5 855.5,399.5 855.5,400.5C 850.833,400.5 846.167,400.5 841.5,400.5C 841.5,403.5 841.5,406.5 841.5,409.5C 846.833,409.5 852.167,409.5 857.5,409.5C 857.5,410.833 857.5,412.167 857.5,413.5C 850.833,413.5 844.167,413.5 837.5,413.5C 837.5,404.167 837.5,394.833 837.5,385.5C 844.167,385.5 850.833,385.5 857.5,385.5C 857.5,386.5 857.5,387.5 857.5,388.5C 852.167,388.5 846.833,388.5 841.5,388.5C 841.5,391.167 841.5,393.833 841.5,396.5 Z"/></g>
<g><path style="opacity:1" fill="#a1b0c1" d="M 717.5,385.5 C 718.434,386.568 718.768,387.901 718.5,389.5C 713.167,389.5 707.833,389.5 702.5,389.5C 702.5,391.833 702.5,394.167 702.5,396.5C 707.363,396.181 712.03,396.514 716.5,397.5C 711.5,397.5 706.5,397.5 701.5,397.5C 701.5,394.5 701.5,391.5 701.5,388.5C 706.833,388.5 712.167,388.5 717.5,388.5C 717.5,387.5 717.5,386.5 717.5,385.5 Z"/></g>
<g><path style="opacity:1" fill="#f9fafb" d="M 919.5,388.5 C 930.552,388.39 934.719,393.723 932,404.5C 929.571,409.202 925.738,411.035 920.5,410C 918,408.833 916.167,407 915,404.5C 913.318,398.158 914.818,392.824 919.5,388.5 Z"/></g>
<g><path style="opacity:1" fill="#eef0f4" d="M 730.5,388.5 C 734.182,388.335 737.848,388.501 741.5,389C 745.701,392.523 745.368,395.523 740.5,398C 737.183,398.498 733.85,398.665 730.5,398.5C 730.5,395.167 730.5,391.833 730.5,388.5 Z"/></g>
<g><path style="opacity:1" fill="#bec8d4" d="M 841.5,396.5 C 846.5,396.5 851.5,396.5 856.5,396.5C 856.768,398.099 856.434,399.432 855.5,400.5C 855.5,399.5 855.5,398.5 855.5,397.5C 850.637,397.819 845.97,397.486 841.5,396.5 Z"/></g>
<g><path style="opacity:1" fill="#294b72" d="M 532.5,397.5 C 573.167,397.5 613.833,397.5 654.5,397.5C 654.5,398.833 654.5,400.167 654.5,401.5C 613.833,401.5 573.167,401.5 532.5,401.5C 532.5,400.167 532.5,398.833 532.5,397.5 Z"/></g>
<g><path style="opacity:1" fill="#22466e" d="M 950.5,397.5 C 990.833,397.5 1031.17,397.5 1071.5,397.5C 1071.5,398.5 1071.5,399.5 1071.5,400.5C 1031.17,400.5 990.833,400.5 950.5,400.5C 950.5,399.5 950.5,398.5 950.5,397.5 Z"/></g>
<g><path style="opacity:1" fill="#7389a3" d="M 776.5,386.5 C 770.167,386.5 763.833,386.5 757.5,386.5C 757.5,395.167 757.5,403.833 757.5,412.5C 763.868,412.83 770.202,412.496 776.5,411.5C 771.015,410.833 765.681,410.167 760.5,409.5C 766.167,409.5 771.833,409.5 777.5,409.5C 777.5,410.833 777.5,412.167 777.5,413.5C 770.5,413.5 763.5,413.5 756.5,413.5C 756.5,404.167 756.5,394.833 756.5,385.5C 763.354,385.176 770.021,385.509 776.5,386.5 Z"/></g>
<g><path style="opacity:1" fill="#a6b5c5" d="M 902.5,398.5 C 903.487,403.305 903.821,408.305 903.5,413.5C 902.209,413.737 901.209,413.404 900.5,412.5C 902.436,408.285 903.103,403.619 902.5,398.5 Z"/></g>
<g><path style="opacity:1" fill="#446183" d="M 950.5,397.5 C 950.5,398.5 950.5,399.5 950.5,400.5C 990.833,400.5 1031.17,400.5 1071.5,400.5C 1031,401.499 990.337,401.832 949.5,401.5C 949.232,399.901 949.566,398.568 950.5,397.5 Z"/></g>
<g><path style="opacity:1" fill="#7a8fa7" d="M 671.5,400.5 C 671.5,404.833 671.5,409.167 671.5,413.5C 669.901,413.768 668.568,413.434 667.5,412.5C 668.5,412.5 669.5,412.5 670.5,412.5C 670.183,408.298 670.517,404.298 671.5,400.5 Z"/></g>
<g><path style="opacity:1" fill="#90a2b6" d="M 688.5,385.5 C 689.494,394.652 689.827,403.985 689.5,413.5C 687.901,413.768 686.568,413.434 685.5,412.5C 686.5,412.5 687.5,412.5 688.5,412.5C 688.5,403.5 688.5,394.5 688.5,385.5 Z"/></g>
<g><path style="opacity:1" fill="#6a819c" d="M 730.5,401.5 C 730.5,405.5 730.5,409.5 730.5,413.5C 728.901,413.768 727.568,413.434 726.5,412.5C 727.5,412.5 728.5,412.5 729.5,412.5C 729.185,408.629 729.518,404.962 730.5,401.5 Z"/></g>
<g><path style="opacity:1" fill="#8397ad" d="M 702.5,400.5 C 702.5,403.5 702.5,406.5 702.5,409.5C 707.833,409.5 713.167,409.5 718.5,409.5C 718.5,410.833 718.5,412.167 718.5,413.5C 711.646,413.824 704.979,413.491 698.5,412.5C 704.868,412.83 711.202,412.496 717.5,411.5C 712.208,410.505 706.875,410.172 701.5,410.5C 701.187,406.958 701.521,403.625 702.5,400.5 Z"/></g>
<g><path style="opacity:1" fill="#758ba4" d="M 170.5,448.5 C 170.833,448.5 171.167,448.5 171.5,448.5C 170.063,449.725 168.396,450.725 166.5,451.5C 165.304,451.154 165.304,450.654 166.5,450C 167.745,449.209 169.078,448.709 170.5,448.5 Z"/></g>
</svg>
